# Blender 5.0.1
# www.blender.org
mtllib Crate.mtl
o Crate
v -0.574270 -0.547723 -0.535659
v -0.574184 -0.547723 -0.535659
v -0.574270 -0.547619 -0.535659
v -0.574184 -0.547619 -0.535659
v -0.574270 -0.547619 -0.535780
v -0.574184 -0.547619 -0.535780
v -0.574270 -0.547723 -0.535780
v -0.574184 -0.547723 -0.535780
v -0.745996 -0.571626 -0.804355
v -0.745996 -0.571626 0.852648
v -0.745996 -0.235355 -0.804355
v -0.745996 -0.235355 0.852648
v -0.681534 -0.235355 -0.804355
v -0.681534 -0.235355 0.852648
v -0.681534 -0.571626 -0.804355
v -0.681534 -0.571626 0.852648
v 0.722021 -0.571626 -0.803561
v 0.722021 -0.571626 0.852648
v 0.722021 -0.235355 -0.803561
v 0.722021 -0.235355 0.852648
v 0.786483 -0.235355 -0.803561
v 0.786483 -0.235355 0.852648
v 0.786483 -0.571626 -0.803561
v 0.786483 -0.571626 0.852648
v -0.745996 0.473210 0.943240
v 0.786483 0.473210 0.943240
v -0.751626 0.809481 0.943240
v 0.786483 0.809481 0.943240
v -0.745996 0.809481 0.852648
v 0.786483 0.809481 0.852648
v -0.745996 0.473210 0.852648
v 0.786483 0.473210 0.852648
v -0.657450 -0.547671 -0.182270
v 0.698036 -0.547671 -0.182270
v -0.657450 -0.499881 -0.182270
v 0.698036 -0.499881 -0.182270
v -0.657450 -0.499881 -0.491397
v 0.698036 -0.499881 -0.491397
v -0.657450 -0.547671 -0.491397
v 0.698036 -0.547671 -0.491397
v -0.657450 -0.547671 0.145485
v 0.698036 -0.547671 0.145485
v -0.657450 -0.499881 0.145485
v 0.698036 -0.499881 0.145485
v -0.657450 -0.499881 -0.163642
v 0.698036 -0.499881 -0.163642
v -0.657450 -0.547671 -0.163642
v 0.698036 -0.547671 -0.163642
v -0.657450 -0.547671 -0.510026
v 0.698036 -0.547671 -0.510026
v -0.657450 -0.499881 -0.510026
v 0.698036 -0.499881 -0.510026
v -0.657450 -0.499881 -0.819152
v 0.698036 -0.499881 -0.819152
v -0.657450 -0.547671 -0.819152
v 0.698036 -0.547671 -0.819152
v 0.722021 0.473210 -0.803561
v 0.722021 0.473210 0.852648
v 0.722021 0.809481 -0.803561
v 0.722021 0.809481 0.852648
v 0.786483 0.809481 -0.803561
v 0.786483 0.809481 0.852648
v 0.786483 0.473210 -0.803561
v 0.786483 0.473210 0.852648
v 0.722021 0.124931 -0.803561
v 0.722021 0.124931 0.852648
v 0.722021 0.461202 -0.803561
v 0.722021 0.461202 0.852648
v 0.786483 0.461202 -0.803561
v 0.786483 0.461202 0.852648
v 0.786483 0.124931 -0.803561
v 0.786483 0.124931 0.852648
v -0.745996 0.473210 -0.804355
v -0.745996 0.473210 0.852648
v -0.745996 0.809481 -0.804355
v -0.745996 0.809481 0.852648
v -0.681534 0.809481 -0.804355
v -0.681534 0.809481 0.852648
v -0.681534 0.473210 -0.804355
v -0.681534 0.473210 0.852648
v -0.745996 0.124931 -0.804355
v -0.745996 0.124931 0.852648
v -0.745996 0.461202 -0.804355
v -0.745996 0.461202 0.852648
v -0.681534 0.461202 -0.804355
v -0.681534 0.461202 0.852648
v -0.681534 0.124931 -0.804355
v -0.681534 0.124931 0.852648
v 0.722021 -0.223348 -0.803561
v 0.722021 -0.223347 0.852648
v 0.722021 0.112924 -0.803561
v 0.722021 0.112924 0.852648
v 0.786483 0.112924 -0.803561
v 0.786483 0.112924 0.852648
v 0.786483 -0.223348 -0.803561
v 0.786483 -0.223347 0.852648
v -0.745996 -0.223348 -0.804355
v -0.745996 -0.223347 0.852648
v -0.745996 0.112924 -0.804355
v -0.745996 0.112924 0.852648
v -0.681534 0.112924 -0.804355
v -0.681534 0.112924 0.852648
v -0.681534 -0.223348 -0.804355
v -0.681534 -0.223347 0.852648
v -0.745996 0.124931 0.943240
v 0.786483 0.124931 0.943240
v -0.745996 0.461203 0.943240
v 0.786483 0.461203 0.943240
v -0.745996 0.461202 0.852648
v 0.786483 0.461202 0.852648
v -0.745996 0.124931 0.852648
v 0.786483 0.124931 0.852648
v -0.749080 -0.601584 -0.894947
v 0.786483 -0.601584 -0.894947
v -0.749080 -0.601584 0.943240
v 0.786483 -0.601584 0.943240
v -0.749080 0.917627 0.943240
v 0.786483 0.917627 0.943240
v -0.749080 0.917627 -0.894947
v 0.786483 0.917627 -0.894947
v -0.659926 -0.601584 -0.769655
v 0.697329 -0.601584 -0.769655
v 0.697329 -0.601584 0.817949
v -0.659926 -0.601584 0.817949
v -0.659926 -0.493438 0.943240
v 0.697329 -0.493438 0.943240
v 0.697329 0.809481 0.943240
v -0.659926 0.809481 0.943240
v -0.659926 0.917627 0.817949
v 0.697329 0.917627 0.817949
v 0.697329 0.917627 -0.769656
v -0.659926 0.917627 -0.769656
v -0.659926 0.809481 -0.894947
v 0.697329 0.809481 -0.894947
v 0.697329 -0.493438 -0.894947
v -0.659926 -0.493438 -0.894947
v 0.786483 0.809481 -0.769656
v 0.786483 -0.493438 -0.769655
v 0.786483 0.809481 0.817949
v 0.786483 -0.493438 0.817949
v -0.749080 0.809481 -0.769656
v -0.749080 -0.493438 -0.769655
v -0.749080 -0.493438 0.817949
v -0.749080 0.809481 0.817949
v -0.822802 -0.691013 -0.998553
v 0.860206 -0.691013 -0.998553
v 0.697329 -0.691013 -0.769655
v -0.659926 -0.691013 -0.769655
v 0.860206 -0.691013 1.046846
v 0.697329 -0.691013 0.817949
v -0.822801 -0.691013 1.046846
v -0.659926 -0.691013 0.817949
v 0.697329 -0.493438 1.046846
v -0.659926 -0.493438 1.046846
v 0.860206 1.007055 1.046846
v 0.697329 0.809481 1.046846
v -0.822802 1.007055 1.046846
v -0.659926 0.809481 1.046846
v 0.697329 1.007055 0.817949
v -0.659926 1.007055 0.817949
v 0.860206 1.007055 -0.998553
v 0.697329 1.007055 -0.769656
v -0.822801 1.007055 -0.998553
v -0.659926 1.007055 -0.769656
v 0.697329 0.809481 -0.998553
v -0.659926 0.809481 -0.998553
v 0.697329 -0.493438 -0.998552
v -0.659926 -0.493438 -0.998552
v 0.860206 0.809481 -0.769656
v 0.860206 -0.493437 -0.769655
v 0.860206 0.809480 0.817949
v 0.860206 -0.493438 0.817949
v -0.822802 -0.493438 -0.769655
v -0.822802 0.809482 -0.769656
v -0.822802 -0.493439 0.817949
v -0.822802 0.809481 0.817949
v -0.657450 -0.547671 0.473239
v 0.698036 -0.547671 0.473239
v -0.657450 -0.499881 0.473239
v 0.698036 -0.499881 0.473239
v -0.657450 -0.499881 0.164113
v 0.698036 -0.499881 0.164113
v -0.657450 -0.547671 0.164113
v 0.698036 -0.547671 0.164113
v -0.745996 0.473210 -0.804355
v 0.786483 0.473210 -0.804355
v -0.745996 0.809481 -0.804355
v 0.786483 0.809481 -0.804355
v -0.745996 0.809481 -0.894947
v 0.786483 0.809481 -0.894947
v -0.745996 0.473210 -0.894947
v 0.786483 0.473210 -0.894947
v -0.745996 -0.223348 -0.804355
v 0.786483 -0.223348 -0.804355
v -0.745996 0.112924 -0.804355
v 0.786483 0.112924 -0.804355
v -0.745996 0.112924 -0.894947
v 0.786483 0.112924 -0.894947
v -0.745996 -0.223348 -0.894947
v 0.786483 -0.223348 -0.894947
v -0.745996 -0.223347 0.943240
v 0.786483 -0.223347 0.943240
v -0.745996 0.112924 0.943240
v 0.786483 0.112924 0.943240
v -0.745996 0.112924 0.852648
v 0.786483 0.112924 0.852648
v -0.745996 -0.223347 0.852648
v 0.786483 -0.223347 0.852648
v -0.745996 0.124931 -0.804355
v 0.786483 0.124931 -0.804355
v -0.745996 0.461202 -0.804355
v 0.786483 0.461202 -0.804355
v -0.745996 0.461202 -0.894947
v 0.786483 0.461202 -0.894947
v -0.745996 0.124931 -0.894947
v 0.786483 0.124931 -0.894947
v -0.745996 -0.571626 -0.804355
v 0.786483 -0.571626 -0.804355
v -0.745996 -0.235355 -0.804355
v 0.786483 -0.235355 -0.804355
v -0.745996 -0.235355 -0.894947
v 0.786483 -0.235355 -0.894947
v -0.745996 -0.571626 -0.894946
v 0.786483 -0.571626 -0.894946
v -0.745996 -0.571626 0.943240
v 0.786483 -0.571626 0.943240
v -0.745996 -0.235355 0.943240
v 0.786483 -0.235355 0.943240
v -0.745996 -0.235355 0.852648
v 0.786483 -0.235355 0.852648
v -0.745996 -0.571626 0.852648
v 0.786483 -0.571626 0.852648
v -0.657450 -0.547671 0.800994
v 0.698036 -0.547671 0.800994
v -0.657450 -0.499881 0.800994
v 0.698036 -0.499881 0.800994
v -0.657450 -0.499881 0.491868
v 0.698036 -0.499881 0.491868
v -0.657450 -0.547671 0.491868
v 0.698036 -0.547671 0.491868
vn -0.0000 -0.0000 1.0000
vn -0.0000 1.0000 -0.0000
vn -0.0000 -0.0000 -1.0000
vn -0.0000 -1.0000 -0.0000
vn 1.0000 -0.0000 -0.0000
vn -1.0000 -0.0000 -0.0000
vn -0.9995 -0.0084 -0.0311
vt 0.000000 0.000000
vt 0.267970 0.238858
vt 0.466848 0.238858
vt 0.466848 0.287664
vt 0.267970 0.287664
vt 0.730827 0.344098
vt 0.929704 0.344098
vt 0.929704 0.355447
vt 0.730827 0.355447
vt 0.466848 0.336470
vt 0.267970 0.336470
vt 0.730827 0.321400
vt 0.929704 0.321400
vt 0.929704 0.332749
vt 0.730827 0.332749
vt 0.929774 0.368367
vt 0.929774 0.357259
vt 0.977546 0.357259
vt 0.977546 0.368367
vt 0.977546 0.423910
vt 0.977546 0.435018
vt 0.929774 0.435018
vt 0.929774 0.423910
vt 0.397895 0.629284
vt 0.596725 0.629284
vt 0.596725 0.678078
vt 0.397895 0.678078
vt 0.730827 0.412185
vt 0.929657 0.412185
vt 0.929657 0.423531
vt 0.730827 0.423531
vt 0.198947 0.580501
vt 0.397778 0.580501
vt 0.397778 0.629295
vt 0.198947 0.629295
vt 0.730827 0.400838
vt 0.929657 0.400838
vt 0.929774 0.312825
vt 0.929774 0.301716
vt 0.977546 0.301716
vt 0.977546 0.312825
vt 0.977546 0.457235
vt 0.977546 0.468344
vt 0.929774 0.468344
vt 0.929774 0.457235
vt 0.000000 0.238858
vt 0.264087 0.238858
vt 0.264087 0.286629
vt 0.000000 0.286629
vt 0.535940 0.955566
vt 0.800026 0.955566
vt 0.800026 0.966674
vt 0.535940 0.966674
vt 0.000000 0.382172
vt 0.264087 0.382172
vt 0.264087 0.429944
vt 0.000000 0.429944
vt 0.535940 0.988891
vt 0.800027 0.988891
vt 0.800027 1.000000
vt 0.535940 1.000000
vt 0.584661 0.235652
vt 0.584661 0.224543
vt 0.632433 0.224543
vt 0.632433 0.235652
vt 0.885113 0.257282
vt 0.885113 0.246174
vt 0.932884 0.246174
vt 0.932884 0.257282
vt 0.759248 0.715934
vt 0.996940 0.715934
vt 0.996940 0.722605
vt 0.759248 0.722605
vt 0.263910 0.711892
vt 0.525855 0.711892
vt 0.525855 0.745694
vt 0.263910 0.745694
vt 0.759248 0.697445
vt 0.996940 0.697445
vt 0.996940 0.704117
vt 0.759248 0.704117
vt 0.000000 0.711892
vt 0.261945 0.711892
vt 0.261945 0.745694
vt 0.000000 0.745694
vt 0.962255 0.123676
vt 0.996652 0.123676
vt 0.996652 0.131158
vt 0.962255 0.131158
vt 0.937895 0.515619
vt 0.972291 0.515619
vt 0.972291 0.523101
vt 0.937895 0.523101
vt 0.730827 0.468917
vt 0.968519 0.468917
vt 0.968519 0.475589
vt 0.730827 0.475589
vt 0.263910 0.678090
vt 0.525855 0.678090
vt 0.730827 0.482260
vt 0.968519 0.482260
vt 0.968519 0.488932
vt 0.730827 0.488932
vt 0.000000 0.678090
vt 0.261945 0.678090
vt 0.901353 0.515619
vt 0.935749 0.515619
vt 0.935749 0.523101
vt 0.901353 0.523101
vt 0.925714 0.011109
vt 0.960110 0.011109
vt 0.960110 0.018590
vt 0.925714 0.018590
vt 0.755188 0.495604
vt 0.992880 0.495604
vt 0.992880 0.502276
vt 0.755188 0.502276
vt 0.466917 0.456663
vt 0.728862 0.456663
vt 0.728862 0.490465
vt 0.466917 0.490465
vt 0.759248 0.488932
vt 0.996940 0.488932
vt 0.996940 0.495604
vt 0.759248 0.495604
vt 0.466917 0.389059
vt 0.728862 0.389059
vt 0.728862 0.422861
vt 0.466917 0.422861
vt 0.816090 0.011109
vt 0.850486 0.011109
vt 0.850486 0.018590
vt 0.816090 0.018590
vt 0.828270 0.515619
vt 0.862667 0.515619
vt 0.862667 0.523101
vt 0.828270 0.523101
vt 0.000000 0.623088
vt 0.198831 0.623088
vt 0.198831 0.671882
vt 0.000000 0.671882
vt 0.730827 0.457570
vt 0.929657 0.457570
vt 0.929657 0.468917
vt 0.397895 0.531695
vt 0.596725 0.531695
vt 0.596725 0.580489
vt 0.397895 0.580489
vt 0.730827 0.378146
vt 0.929657 0.378146
vt 0.929657 0.389492
vt 0.730827 0.389492
vt 0.929774 0.335042
vt 0.929774 0.323933
vt 0.977546 0.323933
vt 0.977546 0.335042
vt 0.977546 0.379476
vt 0.977546 0.390584
vt 0.929774 0.390584
vt 0.929774 0.379476
vt 0.397778 0.678090
vt 0.198947 0.678090
vt 0.730827 0.446224
vt 0.929657 0.446224
vt 0.929657 0.434878
vt 0.730827 0.434878
vt 0.977546 0.446127
vt 0.929774 0.446127
vt 0.267970 0.482889
vt 0.466848 0.482889
vt 0.466848 0.531695
vt 0.267970 0.531695
vt 0.929705 0.355447
vt 0.929705 0.366797
vt 0.730827 0.366797
vt 0.267970 0.385276
vt 0.466848 0.385276
vt 0.466848 0.434082
vt 0.267970 0.434082
vt 0.977546 0.401693
vt 0.929774 0.401693
vt 0.000000 0.525487
vt 0.198878 0.525487
vt 0.198878 0.574293
vt 0.000000 0.574293
vt 0.929705 0.378146
vt 0.730827 0.298702
vt 0.929705 0.298702
vt 0.929705 0.310051
vt 0.730827 0.310051
vt 0.929774 0.290608
vt 0.977546 0.290608
vt 0.977546 0.412801
vt 0.929774 0.412801
vt 0.466917 0.238858
vt 0.665748 0.238858
vt 0.665748 0.287652
vt 0.466917 0.287652
vt 0.198831 0.574293
vt 0.929774 0.346150
vt 0.977546 0.346150
vt 0.198947 0.531695
vt 0.397826 0.531695
vt 0.397826 0.580501
vt 0.929705 0.321400
vt 0.771428 0.212607
vt 0.970306 0.212607
vt 0.970306 0.223956
vt 0.771428 0.223956
vt 0.000000 0.143315
vt 0.264087 0.143315
vt 0.264087 0.191086
vt 0.000000 0.191086
vt 0.503459 0.944457
vt 0.767546 0.944457
vt 0.767546 0.955566
vt 0.503458 0.955566
vt 0.267970 0.095543
vt 0.532057 0.095543
vt 0.532057 0.143315
vt 0.267970 0.143315
vt 0.267970 0.988891
vt 0.532057 0.988891
vt 0.532057 1.000000
vt 0.267970 1.000000
vt 0.965365 0.279499
vt 0.965365 0.290608
vt 0.917594 0.290608
vt 0.917594 0.279499
vt 0.981606 0.246174
vt 0.981606 0.257282
vt 0.933834 0.257282
vt 0.933834 0.246174
vt 0.000000 0.773762
vt 0.290027 0.773762
vt 0.261959 0.801830
vt 0.028068 0.801830
vt 0.535940 0.028068
vt 0.786751 0.028068
vt 0.758683 0.056136
vt 0.564008 0.056136
vt 0.292331 0.745694
vt 0.582358 0.745694
vt 0.554290 0.773762
vt 0.320399 0.773762
vt 0.535940 0.196476
vt 0.786751 0.196476
vt 0.758683 0.224543
vt 0.564008 0.224543
vt 0.292331 0.801830
vt 0.582358 0.801830
vt 0.554290 0.829898
vt 0.320399 0.829898
vt 0.527819 0.706146
vt 0.769051 0.706146
vt 0.740983 0.734214
vt 0.555887 0.734214
vt 0.756944 0.490465
vt 0.728876 0.518533
vt 0.494985 0.518533
vt 0.576541 0.790350
vt 0.817773 0.790350
vt 0.789705 0.818418
vt 0.604609 0.818418
vt 0.292331 0.773762
vt 0.582358 0.773762
vt 0.554290 0.801830
vt 0.320399 0.801830
vt 0.535940 0.112272
vt 0.786751 0.112272
vt 0.758683 0.140340
vt 0.564008 0.140340
vt 0.000000 0.801830
vt 0.290027 0.801830
vt 0.261959 0.829898
vt 0.028068 0.829898
vt 0.535940 0.168408
vt 0.786751 0.168408
vt 0.758683 0.196476
vt 0.564008 0.196476
vt 0.535940 0.000000
vt 0.825967 0.000000
vt 0.797899 0.028068
vt 0.564007 0.028068
vt 0.584661 0.518533
vt 0.825893 0.518533
vt 0.797825 0.546601
vt 0.612729 0.546601
vt 0.290027 0.745694
vt 0.261959 0.773762
vt 0.028068 0.773762
vt 0.596842 0.602736
vt 0.838074 0.602736
vt 0.810006 0.630804
vt 0.624910 0.630804
vt 0.596842 0.574669
vt 0.838074 0.574669
vt 0.810006 0.602736
vt 0.624910 0.602736
vt 0.535940 0.084204
vt 0.786751 0.084204
vt 0.758683 0.112272
vt 0.564008 0.112272
vt 0.576541 0.762282
vt 0.817773 0.762282
vt 0.789705 0.790350
vt 0.604609 0.790350
vt 0.535940 0.056136
vt 0.786751 0.056136
vt 0.758683 0.084204
vt 0.564008 0.084204
vt 0.576541 0.734214
vt 0.817773 0.734214
vt 0.789705 0.762282
vt 0.604609 0.762282
vt 0.535940 0.140340
vt 0.786751 0.140340
vt 0.758683 0.168408
vt 0.564008 0.168408
vt 0.596842 0.546601
vt 0.838074 0.546601
vt 0.810006 0.574669
vt 0.624910 0.574669
vt 0.527819 0.678078
vt 0.778631 0.678078
vt 0.750563 0.706146
vt 0.555887 0.706146
vt 0.535940 0.849145
vt 0.551303 0.833781
vt 0.785194 0.833781
vt 0.800557 0.849145
vt 0.596842 0.661531
vt 0.612206 0.646168
vt 0.806881 0.646168
vt 0.822245 0.661531
vt 0.000000 0.860625
vt 0.015364 0.845261
vt 0.249255 0.845261
vt 0.264618 0.860625
vt 0.596842 0.646168
vt 0.612206 0.630804
vt 0.806881 0.630804
vt 0.822245 0.646168
vt 0.267970 0.860625
vt 0.283333 0.845261
vt 0.517225 0.845261
vt 0.532589 0.860625
vt 0.665864 0.255270
vt 0.681228 0.239907
vt 0.866324 0.239907
vt 0.881688 0.255270
vt 0.000000 0.875988
vt 0.015363 0.860625
vt 0.249254 0.860625
vt 0.264618 0.875988
vt 0.665864 0.285998
vt 0.681228 0.270634
vt 0.866324 0.270634
vt 0.881687 0.285998
vt 0.556240 0.833781
vt 0.571604 0.818418
vt 0.805496 0.818418
vt 0.820859 0.833781
vt 0.267970 0.875988
vt 0.283333 0.860625
vt 0.478009 0.860625
vt 0.493372 0.875988
vt 0.000000 0.845261
vt 0.015364 0.829898
vt 0.249256 0.829898
vt 0.264619 0.845261
vt 0.596842 0.676895
vt 0.612205 0.661531
vt 0.806881 0.661531
vt 0.822244 0.676895
vt 0.535940 0.864508
vt 0.551303 0.849145
vt 0.785194 0.849145
vt 0.800558 0.864508
vt 0.665864 0.239907
vt 0.681228 0.224543
vt 0.866324 0.224543
vt 0.881688 0.239907
vt 0.267970 0.845261
vt 0.283333 0.829898
vt 0.517225 0.829898
vt 0.532589 0.845261
vt 0.665864 0.270634
vt 0.681228 0.255270
vt 0.866324 0.255270
vt 0.881687 0.270634
vt 0.219248 0.906715
vt 0.234612 0.891352
vt 0.419708 0.891352
vt 0.435072 0.906715
vt 0.454737 0.895235
vt 0.470100 0.879872
vt 0.664776 0.879872
vt 0.680139 0.895235
vt 0.438496 0.910599
vt 0.453860 0.895235
vt 0.638956 0.895235
vt 0.654320 0.910599
vt 0.000000 0.891352
vt 0.015364 0.875988
vt 0.210040 0.875988
vt 0.225403 0.891352
vt 0.682105 0.895235
vt 0.697469 0.879872
vt 0.882565 0.879872
vt 0.897929 0.895235
vt 0.495338 0.879872
vt 0.510702 0.864508
vt 0.705377 0.864508
vt 0.720741 0.879872
vt 0.000000 0.906715
vt 0.015364 0.891352
vt 0.200459 0.891352
vt 0.215823 0.906715
vt 0.227368 0.891352
vt 0.242732 0.875988
vt 0.437407 0.875988
vt 0.452771 0.891352
vt 0.657744 0.907940
vt 0.891635 0.907940
vt 0.891635 0.920644
vt 0.657744 0.920644
vt 0.783609 0.060155
vt 0.978285 0.060155
vt 0.978285 0.072859
vt 0.783609 0.072859
vt 0.235489 0.923303
vt 0.469380 0.923303
vt 0.469380 0.936008
vt 0.235489 0.936008
vt 0.787669 0.047450
vt 0.982345 0.047450
vt 0.982345 0.060155
vt 0.787669 0.060155
vt 0.235489 0.910599
vt 0.469380 0.910599
vt 0.775489 0.123676
vt 0.960584 0.123676
vt 0.960584 0.136381
vt 0.775489 0.136381
vt 0.000000 0.919420
vt 0.233891 0.919420
vt 0.233891 0.932124
vt 0.000000 0.932124
vt 0.779549 0.149085
vt 0.964644 0.149085
vt 0.964644 0.161790
vt 0.779549 0.161790
vt 0.653684 0.895235
vt 0.887575 0.895235
vt 0.887575 0.907940
vt 0.653684 0.907940
vt 0.783609 0.034746
vt 0.978284 0.034746
vt 0.978284 0.047450
vt 0.783609 0.047450
vt 0.233891 0.906715
vt 0.803910 0.022041
vt 0.998585 0.022041
vt 0.998585 0.034746
vt 0.803910 0.034746
vt 0.233891 0.944829
vt 0.000000 0.944829
vt 0.787669 0.161790
vt 0.972765 0.161790
vt 0.972765 0.174494
vt 0.787669 0.174494
vt 0.470977 0.920644
vt 0.704869 0.920644
vt 0.704869 0.933349
vt 0.470977 0.933349
vt 0.787669 0.136381
vt 0.972765 0.136381
vt 0.972765 0.149085
vt 0.787669 0.149085
vt 0.730827 0.285998
vt 0.915922 0.285998
vt 0.915922 0.298702
vt 0.775489 0.098268
vt 0.970165 0.098268
vt 0.970165 0.110972
vt 0.775489 0.110972
vt 0.783609 0.199903
vt 0.968705 0.199903
vt 0.968705 0.212607
vt 0.783609 0.212607
vt 0.787669 0.072859
vt 0.982345 0.072859
vt 0.982345 0.085563
vt 0.787669 0.085563
vt 0.783609 0.174494
vt 0.968705 0.174494
vt 0.968705 0.187199
vt 0.783609 0.187199
vt 0.787669 0.110972
vt 0.982345 0.110972
vt 0.982345 0.123676
vt 0.787669 0.123676
vt 0.787669 0.187199
vt 0.972765 0.187199
vt 0.972765 0.199903
vt 0.787669 0.199903
vt 0.982345 0.098268
vt 0.787669 0.098268
vt 0.714586 0.864508
vt 0.952279 0.864508
vt 0.952279 0.871180
vt 0.714586 0.871180
vt 0.728862 0.287652
vt 0.728862 0.321454
vt 0.466917 0.321454
vt 0.747068 0.502276
vt 0.984760 0.502276
vt 0.984760 0.508948
vt 0.747068 0.508948
vt 0.728862 0.355256
vt 0.466917 0.355256
vt 0.889173 0.011109
vt 0.923569 0.011109
vt 0.923569 0.018590
vt 0.889173 0.018590
vt 0.962255 0.011109
vt 0.996652 0.011109
vt 0.996652 0.018590
vt 0.962255 0.018590
vt 0.000000 0.334401
vt 0.264087 0.334401
vt 0.000000 0.966674
vt 0.264087 0.966674
vt 0.264087 0.977783
vt 0.000000 0.977783
vt 0.264087 0.477715
vt 0.000000 0.477715
vt 0.535940 0.977783
vt 0.800027 0.977783
vt 0.876992 0.011109
vt 0.876992 0.000000
vt 0.924764 0.000000
vt 0.924764 0.011109
vt 0.933834 0.279499
vt 0.933834 0.268391
vt 0.981606 0.268391
vt 0.981606 0.279499
vt 0.000000 0.095543
vt 0.264087 0.095543
vt 0.735064 0.933349
vt 0.735064 0.944457
vt 0.470977 0.944457
vt 0.267970 0.000000
vt 0.532057 0.000000
vt 0.532057 0.047772
vt 0.267970 0.047772
vt 0.264087 0.988891
vt 0.000000 0.988891
vt 0.583711 0.224543
vt 0.583711 0.235652
vt 0.535940 0.235652
vt 0.535940 0.224543
vt 0.925714 0.235065
vt 0.925714 0.223956
vt 0.973486 0.223956
vt 0.973486 0.235065
vt 0.000000 0.047772
vt 0.264087 0.047772
vt 0.267970 0.966674
vt 0.532057 0.966674
vt 0.532057 0.977783
vt 0.267970 0.977783
vt 0.800026 0.977783
vt 0.924764 0.223956
vt 0.924764 0.235065
vt 0.876992 0.235065
vt 0.876992 0.223956
vt 0.933834 0.235065
vt 0.981606 0.235065
vt 0.267970 0.955566
vt 0.532057 0.955566
vt 0.264087 0.525487
vt 0.706466 0.920644
vt 0.970553 0.920644
vt 0.970553 0.931753
vt 0.706466 0.931753
vt 0.932884 0.268391
vt 0.932884 0.279499
vt 0.885113 0.279499
vt 0.885113 0.268391
vt 0.977546 0.257282
vt 0.977546 0.268391
vt 0.929774 0.268391
vt 0.929774 0.257282
vt 0.235489 0.944457
vt 0.499575 0.944457
vt 0.499575 0.955566
vt 0.235489 0.955566
vt 0.532057 0.191086
vt 0.267970 0.191086
vt 0.876042 0.000000
vt 0.876042 0.011109
vt 0.828270 0.011109
vt 0.828270 0.000000
vt 0.928824 0.257282
vt 0.928824 0.268391
vt 0.881052 0.268391
vt 0.881052 0.257282
vt 0.264087 0.000000
vt 0.000000 0.955566
vt 0.264087 0.955566
vt 0.532057 0.238858
vt 0.264087 1.000000
vt 0.000000 1.000000
vt 0.973486 0.000000
vt 0.973486 0.011109
vt 0.925714 0.000000
vt 0.932884 0.235065
vt 0.885113 0.235065
vt 0.738947 0.508948
vt 0.976640 0.508948
vt 0.976640 0.515619
vt 0.738947 0.515619
vt 0.864812 0.515619
vt 0.899208 0.515619
vt 0.899208 0.523101
vt 0.864812 0.523101
vt 0.852631 0.011109
vt 0.887028 0.011109
vt 0.887028 0.018590
vt 0.852631 0.018590
s 1
usemtl crates_Smallfullopen_LOD0SG
f 1/1/1 2/1/1 4/1/1 3/1/1
f 3/1/2 4/1/2 6/1/2 5/1/2
f 5/1/3 6/1/3 8/1/3 7/1/3
f 7/1/4 8/1/4 2/1/4 1/1/4
f 2/1/5 8/1/5 6/1/5 4/1/5
f 7/1/6 1/1/6 3/1/6 5/1/6
f 9/2/6 10/3/6 12/4/6 11/5/6
f 11/6/2 12/7/2 14/8/2 13/9/2
f 13/5/5 14/4/5 16/10/5 15/11/5
f 15/12/4 16/13/4 10/14/4 9/15/4
f 10/16/1 16/17/1 14/18/1 12/19/1
f 15/20/3 9/21/3 11/22/3 13/23/3
f 17/24/6 18/25/6 20/26/6 19/27/6
f 19/28/2 20/29/2 22/30/2 21/31/2
f 21/32/5 22/33/5 24/34/5 23/35/5
f 23/36/4 24/37/4 18/29/4 17/28/4
f 18/38/1 24/39/1 22/40/1 20/41/1
f 23/42/3 17/43/3 19/44/3 21/45/3
f 25/46/1 26/47/1 28/48/1 27/49/1
f 27/50/2 28/51/2 30/52/2 29/53/2
f 29/54/3 30/55/3 32/56/3 31/57/3
f 31/58/4 32/59/4 26/60/4 25/61/4
f 26/62/5 32/63/5 30/64/5 28/65/5
f 31/66/7 25/67/7 27/68/7 29/69/7
f 33/70/1 34/71/1 36/72/1 35/73/1
f 35/74/2 36/75/2 38/76/2 37/77/2
f 37/78/3 38/79/3 40/80/3 39/81/3
f 39/82/4 40/83/4 34/84/4 33/85/4
f 34/86/5 40/87/5 38/88/5 36/89/5
f 39/90/6 33/91/6 35/92/6 37/93/6
f 41/94/1 42/95/1 44/96/1 43/97/1
f 43/98/2 44/99/2 46/75/2 45/74/2
f 45/100/3 46/101/3 48/102/3 47/103/3
f 47/104/4 48/105/4 42/83/4 41/82/4
f 42/106/5 48/107/5 46/108/5 44/109/5
f 47/110/6 41/111/6 43/112/6 45/113/6
f 49/114/1 50/115/1 52/116/1 51/117/1
f 51/118/2 52/119/2 54/120/2 53/121/2
f 53/122/3 54/123/3 56/124/3 55/125/3
f 55/126/4 56/127/4 50/128/4 49/129/4
f 50/130/5 56/131/5 54/132/5 52/133/5
f 55/134/6 49/135/6 51/136/6 53/137/6
f 57/138/6 58/139/6 60/140/6 59/141/6
f 59/142/2 60/143/2 62/144/2 61/94/2
f 61/145/5 62/146/5 64/147/5 63/148/5
f 63/149/4 64/150/4 58/151/4 57/152/4
f 58/153/1 64/154/1 62/155/1 60/156/1
f 63/157/3 57/158/3 59/159/3 61/160/3
f 65/35/6 66/34/6 68/161/6 67/162/6
f 67/163/2 68/164/2 70/143/2 69/142/2
f 69/148/5 70/147/5 72/25/5 71/24/5
f 71/31/4 72/30/4 66/165/4 65/166/4
f 66/154/1 72/38/1 70/41/1 68/155/1
f 71/167/3 65/42/3 67/45/3 69/168/3
f 73/169/6 74/170/6 76/171/6 75/172/6
f 75/9/2 76/173/2 78/174/2 77/175/2
f 77/176/5 78/177/5 80/178/5 79/179/5
f 79/15/4 80/14/4 74/7/4 73/6/4
f 74/160/1 80/16/1 78/19/1 76/157/1
f 79/158/3 73/180/3 75/181/3 77/159/3
f 81/182/6 82/183/6 84/184/6 83/185/6
f 83/175/2 84/174/2 86/186/2 85/149/2
f 85/179/5 86/178/5 88/170/5 87/169/5
f 87/187/4 88/188/4 82/189/4 81/190/4
f 82/39/1 88/191/1 86/192/1 84/40/1
f 87/180/3 81/193/3 83/194/3 85/181/3
f 89/195/6 90/196/6 92/197/6 91/198/6
f 91/166/2 92/165/2 94/164/2 93/163/2
f 93/185/5 94/199/5 96/139/5 95/138/5
f 95/152/4 96/151/4 90/37/4 89/36/4
f 90/17/1 96/200/1 94/201/1 92/18/1
f 95/193/3 89/20/3 91/23/3 93/194/3
f 97/202/6 98/203/6 100/204/6 99/32/6
f 99/190/2 100/189/2 102/205/2 101/12/2
f 101/11/5 102/10/5 104/177/5 103/176/5
f 103/206/4 104/207/4 98/208/4 97/209/4
f 98/200/1 104/153/1 102/156/1 100/201/1
f 103/21/3 97/167/3 99/168/3 101/22/3
f 105/210/1 106/211/1 108/212/1 107/213/1
f 107/214/2 108/215/2 110/216/2 109/217/2
f 109/218/3 110/219/3 112/220/3 111/221/3
f 111/222/4 112/223/4 106/224/4 105/225/4
f 106/226/5 112/227/5 110/228/5 108/229/5
f 111/230/6 105/231/6 107/232/6 109/233/6
f 145/234/4 146/235/4 147/236/4 148/237/4
f 146/238/4 149/239/4 150/240/4 147/241/4
f 149/242/4 151/243/4 152/244/4 150/245/4
f 151/246/4 145/247/4 148/248/4 152/249/4
f 151/250/1 149/251/1 153/252/1 154/253/1
f 149/254/1 155/255/1 156/256/1 153/257/1
f 155/121/1 157/258/1 158/259/1 156/260/1
f 157/261/1 151/262/1 154/263/1 158/264/1
f 157/265/2 155/266/2 159/267/2 160/268/2
f 155/269/2 161/270/2 162/271/2 159/272/2
f 161/273/2 163/274/2 164/275/2 162/276/2
f 163/277/2 157/278/2 160/279/2 164/280/2
f 163/281/3 161/282/3 165/283/3 166/284/3
f 161/285/3 146/286/3 167/287/3 165/288/3
f 146/85/3 145/289/3 168/290/3 167/291/3
f 145/292/3 163/293/3 166/294/3 168/295/3
f 146/296/5 161/297/5 169/298/5 170/299/5
f 161/300/5 155/301/5 171/302/5 169/303/5
f 155/304/5 149/305/5 172/306/5 171/307/5
f 149/308/5 146/309/5 170/310/5 172/311/5
f 163/312/6 145/313/6 173/314/6 174/315/6
f 145/316/6 151/317/6 175/318/6 173/319/6
f 151/320/6 157/321/6 176/322/6 175/323/6
f 157/324/6 163/325/6 174/326/6 176/327/6
f 113/328/2 121/329/2 122/330/2 114/331/2
f 114/332/2 122/333/2 123/334/2 116/335/2
f 116/336/2 123/337/2 124/338/2 115/339/2
f 115/340/2 124/341/2 121/342/2 113/343/2
f 115/344/3 125/345/3 126/346/3 116/347/3
f 116/348/3 126/349/3 127/350/3 118/351/3
f 118/352/3 127/353/3 128/354/3 117/355/3
f 117/356/3 128/357/3 125/358/3 115/359/3
f 117/360/4 129/361/4 130/362/4 118/363/4
f 118/364/4 130/365/4 131/366/4 120/367/4
f 120/368/4 131/369/4 132/370/4 119/371/4
f 119/372/4 132/373/4 129/374/4 117/375/4
f 119/376/1 133/377/1 134/378/1 120/379/1
f 120/380/1 134/381/1 135/382/1 114/383/1
f 114/384/1 135/385/1 136/386/1 113/387/1
f 113/388/1 136/389/1 133/390/1 119/391/1
f 114/392/6 138/393/6 137/394/6 120/395/6
f 120/396/6 137/397/6 139/398/6 118/399/6
f 118/400/6 139/401/6 140/402/6 116/403/6
f 116/404/6 140/405/6 138/406/6 114/407/6
f 119/408/5 141/409/5 142/410/5 113/411/5
f 113/412/5 142/413/5 143/414/5 115/415/5
f 115/416/5 143/417/5 144/418/5 117/419/5
f 117/420/5 144/421/5 141/422/5 119/423/5
f 122/424/1 121/425/1 148/426/1 147/427/1
f 123/428/6 122/429/6 147/430/6 150/431/6
f 124/432/3 123/433/3 150/434/3 152/435/3
f 121/436/5 124/437/5 152/438/5 148/439/5
f 126/440/2 125/441/2 154/433/2 153/432/2
f 127/442/6 126/443/6 153/444/6 156/445/6
f 128/446/4 127/447/4 156/448/4 158/449/4
f 125/450/5 128/451/5 158/452/5 154/453/5
f 130/454/3 129/455/3 160/456/3 159/457/3
f 131/458/6 130/459/6 159/460/6 162/461/6
f 132/416/1 131/462/1 162/447/1 164/446/1
f 129/463/5 132/464/5 164/465/5 160/466/5
f 134/449/4 133/448/4 166/467/4 165/468/4
f 135/469/6 134/470/6 165/471/6 167/472/6
f 136/473/2 135/474/2 167/475/2 168/476/2
f 133/477/5 136/478/5 168/479/5 166/480/5
f 137/481/1 138/482/1 170/483/1 169/187/1
f 139/484/4 137/485/4 169/486/4 171/487/4
f 140/488/3 139/489/3 171/490/3 172/491/3
f 138/492/2 140/493/2 172/494/2 170/495/2
f 142/496/1 141/497/1 174/498/1 173/499/1
f 143/500/2 142/501/2 173/502/2 175/503/2
f 144/504/3 143/505/3 175/506/3 176/507/3
f 141/495/4 144/494/4 176/508/4 174/509/4
f 177/510/1 178/511/1 180/512/1 179/513/1
f 179/198/2 180/514/2 182/515/2 181/516/2
f 181/517/3 182/518/3 184/519/3 183/520/3
f 183/516/4 184/515/4 178/521/4 177/522/4
f 178/523/5 184/524/5 182/525/5 180/526/5
f 183/527/6 177/528/6 179/529/6 181/530/6
f 185/531/1 186/532/1 188/55/1 187/54/1
f 187/533/2 188/534/2 190/535/2 189/536/2
f 189/57/3 190/56/3 192/537/3 191/538/3
f 191/539/4 192/540/4 186/59/4 185/58/4
f 186/541/5 192/542/5 190/543/5 188/544/5
f 191/545/6 185/546/6 187/547/6 189/548/6
f 193/549/1 194/550/1 196/211/1 195/210/1
f 195/476/2 196/551/2 198/552/2 197/553/2
f 197/554/3 198/555/3 200/556/3 199/557/3
f 199/536/4 200/535/4 194/558/4 193/559/4
f 194/560/5 200/561/5 198/562/5 196/563/5
f 199/564/6 193/565/6 195/566/6 197/567/6
f 201/568/1 202/569/1 204/550/1 203/549/1
f 203/570/2 204/571/2 206/572/2 205/573/2
f 205/557/3 206/556/3 208/219/3 207/218/3
f 207/53/4 208/52/4 202/574/4 201/539/4
f 202/575/5 208/576/5 206/577/5 204/578/5
f 207/233/6 201/579/6 203/580/6 205/230/6
f 209/49/1 210/48/1 212/532/1 211/531/1
f 211/581/2 212/582/2 214/571/2 213/570/2
f 213/538/3 214/537/3 216/583/3 215/182/3
f 215/584/4 216/585/4 210/586/4 209/587/4
f 210/588/5 216/589/5 214/590/5 212/591/5
f 215/592/6 209/593/6 211/594/6 213/595/6
f 217/213/1 218/212/1 220/47/1 219/46/1
f 219/596/2 220/597/2 222/598/2 221/599/2
f 221/221/3 222/220/3 224/600/3 223/601/3
f 223/573/4 224/572/4 218/223/4 217/222/4
f 218/602/5 224/603/5 222/604/5 220/605/5
f 223/606/6 217/607/6 219/608/6 221/609/6
f 225/1/1 226/610/1 228/569/1 227/568/1
f 227/611/2 228/612/2 230/534/2 229/533/2
f 229/601/3 230/600/3 232/613/3 231/2/3
f 231/559/4 232/558/4 226/614/4 225/615/4
f 226/616/5 232/617/5 230/110/5 228/618/5
f 231/619/6 225/68/6 227/67/6 229/620/6
f 233/97/1 234/96/1 236/101/1 235/100/1
f 235/522/2 236/521/2 238/127/2 237/126/2
f 237/621/3 238/622/3 240/623/3 239/624/3
f 239/129/4 240/128/4 234/119/4 233/118/4
f 234/625/5 240/626/5 238/627/5 236/628/5
f 239/629/6 233/630/6 235/631/6 237/632/6
